<?xml version="1.0" encoding="UTF-8"?><svg id="Livello_1" xmlns="http://www.w3.org/2000/svg" viewBox="0 0 218.78 218.78"><defs><style>.cls-1{fill:#fff;}.cls-2{stroke:#1d1d1b;stroke-miterlimit:10;}</style></defs><circle class="cls-2" cx="109.39" cy="109.39" r="108.89"/><path class="cls-1" d="M114.14,173.82h-10.74v-23.75c-14.04,2.89-27.05,5.58-40.27,8.47-.21-.21-.62-.62-.83-1.03,8.05-10.33,15.9-20.65,24.58-31.8-7.02,1.24-12.8,2.48-19.41,3.72,9.09-14.87,17.76-28.91,26.43-42.96l-.62-.83-12.8,5.99c-.21,0-.41-.41-.62-.62,9.5-15.08,18.79-30.15,28.91-46.05,9.91,15.7,19.41,30.77,29.12,46.05,0,.21-.21.41-.41.62-4.34-2.07-8.67-4.13-13.22-6.2-.21.21-.41.41-.62.62,8.67,14.04,17.35,28.29,26.64,43.16-6.82-1.24-12.6-2.48-19.62-3.92,8.88,11.36,16.93,21.68,25.81,33.25-14.46-3.1-27.88-5.78-42.13-8.88v23.75h0l-.21.41Z"/></svg>