<?xml version="1.0" encoding="UTF-8"?>
<svg id="Livello_1" xmlns="http://www.w3.org/2000/svg" version="1.1" viewBox="0 0 153.4 110.9">
  <!-- Generator: Adobe Illustrator 30.1.0, SVG Export Plug-In . SVG Version: 2.1.1 Build 136)  -->
  <defs>
    <style>
      .st0 {
        fill: #1f1f1f;
      }
    </style>
  </defs>
  <path class="st0" d="M38.3,110.9c-10.6,0-19.6-3.7-27.1-11C3.7,92.6,0,83.6,0,73s2.7-17.1,8.2-24.2c5.5-7.1,12.6-11.6,21.4-13.6,2-8.4,6.9-16.3,14.8-23.9C52.3,3.8,60.8,0,69.7,0s7.1,1.4,9.8,4.1c2.7,2.7,4.1,6,4.1,9.8v42.2l11.2-10.8,9.8,9.8-27.9,27.9-27.9-27.9,9.8-9.8,11.2,10.8V13.9c-8.8,1.6-15.7,5.9-20.6,12.8s-7.3,14-7.3,21.4h-3.5c-6.7,0-12.5,2.4-17.3,7.1-4.8,4.8-7.1,10.5-7.1,17.3s2.4,12.5,7.1,17.3c4.8,4.8,10.5,7.1,17.3,7.1h83.7c4.9,0,9-1.7,12.4-5.1,3.4-3.4,5.1-7.5,5.1-12.4s-1.7-9-5.1-12.4-7.5-5.1-12.4-5.1h-10.5v-13.9c0-5.6-1.3-10.8-3.8-15.6s-5.9-8.9-10.1-12.3V4c8.6,4.1,15.4,10.1,20.4,18,5,8,7.5,16.6,7.5,26.1,8,.9,14.7,4.4,20,10.4,5.3,6,7.9,13,7.9,21s-3.1,16.1-9.2,22.2c-6.1,6.1-13.5,9.2-22.2,9.2H38.3Z"/>
</svg>