<?xml version="1.0" encoding="UTF-8"?>
<svg id="Livello_1" xmlns="http://www.w3.org/2000/svg" version="1.1" viewBox="0 0 157 157">
  <!-- Generator: Adobe Illustrator 30.1.0, SVG Export Plug-In . SVG Version: 2.1.1 Build 136)  -->
  <defs>
    <style>
      .st0 {
        fill: #1f1f1f;
      }
    </style>
  </defs>
  <path class="st0" d="M39.3,117.6h78.4v-15.7H39.3v15.7ZM78.5,94.1l31.4-31.4-11-11-12.5,12.2V31.4h-15.7v32.5l-12.5-12.2-11,11,31.4,31.4h-.1ZM78.5,156.8c-10.8,0-21-2.1-30.6-6.2-9.5-4.1-17.8-9.7-24.9-16.8-7.1-7.1-12.6-15.4-16.8-24.9-4.1-9.5-6.2-19.7-6.2-30.6s2.1-21,6.2-30.6c4.1-9.5,9.7-17.8,16.8-24.9,7.1-7.1,15.4-12.6,24.9-16.8,9.6-3.9,19.8-6,30.6-6s21,2.1,30.6,6.2c9.5,4.1,17.8,9.7,24.9,16.8s12.6,15.4,16.8,24.9c4.1,9.5,6.2,19.7,6.2,30.6s-2.1,21-6.2,30.6c-4.1,9.5-9.7,17.8-16.8,24.9s-15.4,12.6-24.9,16.8c-9.5,4.1-19.7,6.2-30.6,6.2v-.2ZM78.5,141.1c17.5,0,32.3-6.1,44.5-18.2,12.2-12.2,18.2-27,18.2-44.5s-6.1-32.3-18.2-44.5c-12.2-12.2-27-18.2-44.5-18.2s-32.3,6.1-44.5,18.2c-12.2,12.1-18.2,27-18.2,44.5s6.1,32.3,18.2,44.5c12.1,12.2,27,18.2,44.5,18.2Z"/>
</svg>