<?xml version="1.0" encoding="UTF-8"?>
<svg id="Livello_1" xmlns="http://www.w3.org/2000/svg" version="1.1" viewBox="0 0 20 20">
  <!-- Generator: Adobe Illustrator 30.1.0, SVG Export Plug-In . SVG Version: 2.1.1 Build 136)  -->
  <defs>
    <style>
      .st0 {
        fill: #fff;
      }

      .st1 {
        fill: #2d4f1e;
      }
    </style>
  </defs>
  <circle class="st0" cx="10" cy="10.1" r="9.1"/>
  <path class="st1" d="M5.5,14.5l7-2,2-7-7,2-2,7ZM10,11.5c-.4,0-.8-.1-1.1-.4s-.4-.6-.4-1.1.1-.8.4-1.1c.3-.3.6-.4,1.1-.4s.8.1,1.1.4c.3.3.4.6.4,1.1s-.1.8-.4,1.1c-.3.3-.6.4-1.1.4ZM10,20c-1.4,0-2.7-.3-3.9-.8s-2.3-1.2-3.2-2.1-1.6-2-2.1-3.2-.8-2.5-.8-3.9.3-2.7.8-3.9,1.2-2.3,2.1-3.2,2-1.6,3.2-2.1,2.5-.8,3.9-.8,2.7.3,3.9.8,2.3,1.2,3.2,2.1,1.6,2,2.1,3.2.8,2.5.8,3.9-.3,2.7-.8,3.9-1.2,2.3-2.1,3.2-2,1.6-3.2,2.1-2.5.8-3.9.8ZM10,18c2.2,0,4.1-.8,5.7-2.3s2.3-3.4,2.3-5.7-.8-4.1-2.3-5.7-3.4-2.3-5.7-2.3-4.1.8-5.7,2.3-2.3,3.4-2.3,5.7.8,4.1,2.3,5.7,3.4,2.3,5.7,2.3Z"/>
</svg>