<?xml version="1.0" encoding="UTF-8"?><svg xmlns="http://www.w3.org/2000/svg" viewBox="0 0 1024 1024"><defs><style>.cls-1{font-family:GoogleSans-Regular, 'Google Sans';font-size:119.05px;font-variation-settings:'opsz' 18, 'wght' 400, 'GRAD' 0;}.cls-1,.cls-2,.cls-3{fill:#fff;}.cls-2{stroke-width:16.13px;}.cls-2,.cls-3{stroke:#fff;stroke-miterlimit:10;}.cls-4{letter-spacing:-.06em;}.cls-5{letter-spacing:-.04em;}.cls-6{fill:#1d1d1b;}.cls-3{stroke-width:8.27px;}.cls-7{letter-spacing:-.06em;}</style></defs><g id="Livello_2"><rect class="cls-6" x="-5.64" y="-8.7" width="1041.7" height="1044.77"/></g><g id="Livello_1"><path class="cls-2" d="M200.24,225.68h71.42v36h4.65c8.13-12.77,19.93-23.52,35.42-32.23,15.48-8.71,33.29-13.07,53.42-13.07,26.71,0,51,6.68,72.87,20.04,21.86,13.36,38.99,32.04,51.38,56.03,12.38,24,18.58,51.1,18.58,81.29s-6.2,57.77-18.58,81.57c-12.39,23.81-29.52,42.39-51.38,55.74-21.87,13.36-46.16,20.04-72.87,20.04-20.13,0-38.03-4.27-53.71-12.77-15.68-8.51-27.39-19.16-35.13-31.94h-4.65l4.65,41.8v119.03h-76.07V225.68ZM391.85,449.81c12.38-7.35,22.26-17.61,29.61-30.78,7.35-13.15,11.03-28.25,11.03-45.28s-3.69-32.13-11.03-45.29c-7.36-13.16-17.23-23.32-29.61-30.49-12.39-7.16-25.75-10.74-40.07-10.74s-27.1,3.58-39.48,10.74c-12.39,7.17-22.26,17.33-29.61,30.49-7.36,13.16-11.03,28.26-11.03,45.29s3.68,32.13,11.03,45.28c7.35,13.17,17.22,23.43,29.61,30.78,12.38,7.36,25.55,11.03,39.48,11.03s27.67-3.68,40.07-11.03Z"/><path class="cls-3" d="M686.66,649.91h-36.89v-81.8c-48.07,9.99-93.56,19.43-139.05,28.88-.91-1.09-1.82-2.18-2.73-3.28,27.39-35.44,54.77-70.88,84.46-109.3-23.97,4.61-44.06,8.48-67.19,12.94,31.52-51.03,61.38-99.38,91.25-147.73-.65-.86-1.3-1.73-1.96-2.59-14.65,6.9-29.31,13.8-43.96,20.7-.76-.67-1.52-1.34-2.29-2.01,32.56-51.81,65.13-103.63,99.62-158.53,34.09,54.03,67.05,106.28,100.01,158.52-.48.8-.96,1.6-1.44,2.4-15.06-7.12-30.13-14.24-45.19-21.36-.71.73-1.42,1.46-2.13,2.19,30.02,48.63,60.04,97.26,91.65,148.47-23.33-4.55-43.43-8.47-67.5-13.16,30.32,39.01,58.19,74.88,88.76,114.21-50.05-10.45-96.29-20.1-145.42-30.36v81.79Z"/><text class="cls-1" transform="translate(184.67 779.06)"><tspan class="cls-7" x="0" y="0">k</tspan><tspan class="cls-5" x="53.22" y="0">eep the w</tspan><tspan class="cls-4" x="537.75" y="0">a</tspan><tspan class="cls-5" x="594.17" y="0">y</tspan></text></g></svg>