<?xml version="1.0" encoding="UTF-8"?>
<svg id="Livello_1" xmlns="http://www.w3.org/2000/svg" version="1.1" viewBox="0 0 501.2 132.3">
  <!-- Generator: Adobe Illustrator 30.1.0, SVG Export Plug-In . SVG Version: 2.1.1 Build 136)  -->
  <defs>
    <style>
      .st0 {
        font-family: GoogleSans17pt-Regular, 'Google Sans 17pt';
        font-size: 28px;
      }

      .st0, .st1 {
        isolation: isolate;
      }

      .st2 {
        stroke-width: 1.2px;
      }

      .st2, .st3 {
        fill: #1d1d1b;
        stroke: #1d1d1b;
        stroke-miterlimit: 10;
      }

      .st3 {
        stroke-width: 3.1px;
      }
    </style>
  </defs>
  <path class="st3" d="M1.6,24.5h13.7v6.9h.9c1.6-2.4,3.8-4.5,6.8-6.2,3-1.7,6.4-2.5,10.3-2.5s9.8,1.3,14,3.9,7.5,6.2,9.9,10.8c2.4,4.6,3.6,9.8,3.6,15.6s-1.2,11.1-3.6,15.7c-2.4,4.6-5.7,8.1-9.9,10.7s-8.9,3.9-14,3.9-7.3-.8-10.3-2.4-5.3-3.7-6.8-6.1h-.9l.9,8v22.9H1.5V24.5h.1ZM38.4,67.6c2.4-1.4,4.3-3.4,5.7-5.9s2.1-5.4,2.1-8.7-.7-6.2-2.1-8.7c-1.4-2.5-3.3-4.5-5.7-5.9s-4.9-2.1-7.7-2.1-5.2.7-7.6,2.1c-2.4,1.4-4.3,3.3-5.7,5.9s-2.1,5.4-2.1,8.7.7,6.2,2.1,8.7,3.3,4.5,5.7,5.9,4.9,2.1,7.6,2.1,5.3-.7,7.7-2.1Z"/>
  <path class="st3" d="M110.1,24.5h13.7v7.1h.9c1.7-2.8,4.1-4.9,7.3-6.5,3.1-1.6,6.5-2.4,10.1-2.4,6.8,0,12,2.1,15.6,6.2,3.6,4.1,5.4,9.9,5.4,17.1v35.4h-14.6v-33.6c0-3.6-.9-6.5-2.8-8.5-1.9-2-4.5-3-7.8-3s-7.1,1.5-9.5,4.6c-2.4,3.1-3.6,6.9-3.6,11.5v29h-14.6V24.5h0Z"/>
  <path class="st3" d="M186.1,79.3c-4.5-2.6-8.1-6.2-10.6-10.8-2.6-4.6-3.9-9.7-3.9-15.4s1.3-10.5,3.8-15.1,6-8.4,10.5-11.1c4.5-2.8,9.4-4.1,15-4.1s10.9,1.3,15.2,3.8c4.2,2.5,7.5,6,9.6,10.4s3.3,9.3,3.3,14.6-.1,3.4-.3,4.9h-42.7c.7,4.5,2.5,8,5.4,10.3s6.3,3.5,10.3,3.5,6.2-.7,8.6-2.2c2.4-1.4,4.3-3.4,5.8-5.9l11.8,5.8c-5.8,10.1-14.6,15.2-26.4,15.2s-10.8-1.3-15.3-3.9h-.1ZM214.9,46.1c-.1-1.8-.8-3.6-2-5.3-1.1-1.8-2.8-3.2-4.8-4.4-2-1.1-4.4-1.7-7.2-1.7s-6.5,1-9,3.1-4.3,4.8-5.4,8.3h28.4Z"/>
  <path class="st3" d="M230.5,24.5h16.4l9.8,36.9h.8l11.4-36.9h15l11.4,36.9h.8l9.8-36.9h16.2l-18.2,56.9h-15.7l-11.6-36.8h-.8l-11.5,36.8h-15.6l-18.1-56.9h0Z"/>
  <path class="st3" d="M337.9,79.3c-4.6-2.6-8.2-6.2-10.8-10.8s-3.9-9.7-3.9-15.4,1.3-10.8,3.9-15.4c2.6-4.6,6.1-8.2,10.8-10.9,4.6-2.6,9.9-4,15.7-4s11,1.3,15.6,4,8.2,6.3,10.8,10.9,3.9,9.7,3.9,15.4-1.3,10.9-3.9,15.4-6.2,8.2-10.8,10.8c-4.6,2.6-9.8,4-15.6,4s-11.1-1.3-15.7-4ZM361.5,67.7c2.4-1.3,4.3-3.3,5.7-5.8s2.1-5.5,2.1-8.9-.7-6.3-2.1-8.8-3.3-4.5-5.7-5.8-5-2-7.8-2-5.4.7-7.8,2-4.3,3.3-5.8,5.8-2.2,5.5-2.2,8.8.7,6.3,2.2,8.9c1.5,2.6,3.4,4.5,5.8,5.9s5,2,7.8,2,5.4-.7,7.8-2h0Z"/>
  <path class="st3" d="M388.8,79.3c-4.6-2.6-8.2-6.2-10.8-10.8s-3.9-9.7-3.9-15.4,1.3-10.8,3.9-15.4c2.6-4.6,6.1-8.2,10.8-10.9,4.6-2.6,9.8-4,15.7-4s11,1.3,15.6,4,8.2,6.3,10.8,10.9,3.8,9.7,3.8,15.4-1.3,10.9-3.8,15.4-6.2,8.2-10.8,10.8c-4.6,2.6-9.8,4-15.6,4s-11.1-1.3-15.7-4ZM412.4,67.7c2.4-1.3,4.3-3.3,5.7-5.8s2.1-5.5,2.1-8.9-.7-6.3-2.1-8.8-3.3-4.5-5.7-5.8-5-2-7.8-2-5.4.7-7.8,2-4.3,3.3-5.8,5.8-2.2,5.5-2.2,8.8.7,6.3,2.2,8.9c1.5,2.6,3.4,4.5,5.8,5.9s5,2,7.8,2,5.4-.7,7.8-2h0Z"/>
  <path class="st3" d="M454.1,79.4c-4.2-2.6-7.5-6.1-9.9-10.7s-3.6-9.8-3.6-15.7,1.2-11,3.6-15.6,5.7-8.2,9.9-10.8,8.9-3.9,14-3.9,7.3.8,10.3,2.5,5.2,3.7,6.8,6.2h.9l-.9-8V1.5h14.5v79.9h-13.6v-6.8h-.9c-1.5,2.4-3.7,4.5-6.8,6.1-3,1.6-6.5,2.4-10.3,2.4s-9.8-1.3-14-3.9h0v.2ZM478.3,67.6c2.4-1.4,4.3-3.4,5.7-5.9s2.1-5.4,2.1-8.7-.7-6.2-2.1-8.7-3.3-4.5-5.7-5.9-5-2.1-7.7-2.1-5.2.7-7.6,2.1c-2.4,1.4-4.3,3.3-5.7,5.9s-2.1,5.4-2.1,8.7.7,6.2,2.1,8.7,3.3,4.5,5.7,5.9,4.9,2.1,7.6,2.1,5.3-.7,7.7-2.1Z"/>
  <path class="st2" d="M85.8,83.2h-5.2v-11.5c-6.8,1.4-13.1,2.7-19.5,4.1,0,0-.3-.3-.4-.5,3.9-5,7.7-10,11.9-15.4-3.4.6-6.2,1.2-9.4,1.8,4.4-7.2,8.6-14,12.8-20.8l-.3-.4-6.2,2.9c0,0-.2-.2-.3-.3,4.6-7.3,9.1-14.6,14-22.3,4.8,7.6,9.4,14.9,14.1,22.3,0,0,0,.2-.2.3-2.1-1-4.2-2-6.4-3,0,0-.2.2-.3.3,4.2,6.8,8.4,13.7,12.9,20.9-3.3-.6-6.1-1.2-9.5-1.9,4.3,5.5,8.2,10.5,12.5,16.1-7-1.5-13.5-2.8-20.4-4.3v11.5h0v.2Z"/>
  <g class="st1">
    <text class="st0" transform="translate(333.2 111)"><tspan x="0" y="0">keep the way</tspan></text>
  </g>
</svg>